<?xml version="1.0" standalone="no"?>
<!DOCTYPE svg PUBLIC "-//W3C//DTD SVG 20010904//EN"
 "http://www.w3.org/TR/2001/REC-SVG-20010904/DTD/svg10.dtd">
<svg version="1.0" xmlns="http://www.w3.org/2000/svg"
 width="1200.000000pt" height="611.000000pt" viewBox="0 0 1200.000000 611.000000"
 preserveAspectRatio="xMidYMid meet">

<g transform="translate(0.000000,611.000000) scale(0.100000,-0.100000)"
fill="#fff" stroke="none">
<path d="M430 6095 c-19 -7 -54 -14 -76 -14 -23 -1 -58 -8 -79 -17 -21 -8 -44
-13 -52 -9 -26 9 -43 -15 -43 -59 0 -35 -5 -46 -30 -64 -16 -13 -30 -29 -30
-37 0 -8 -9 -32 -20 -52 -11 -21 -20 -45 -20 -53 0 -9 -11 -31 -24 -48 -13
-18 -29 -53 -36 -79 -12 -41 -12 -47 5 -59 10 -7 43 -18 74 -25 31 -6 65 -15
76 -20 34 -15 86 -47 103 -62 9 -9 40 -21 67 -28 70 -17 102 -35 119 -67 14
-27 30 -116 42 -230 6 -62 6 -62 65 -107 33 -25 64 -45 69 -45 5 0 17 11 26
25 25 38 46 46 75 30 82 -47 130 -65 168 -65 38 0 44 -4 84 -55 48 -63 64 -70
134 -57 39 7 57 5 79 -6 19 -10 69 -16 153 -18 182 -6 186 -7 249 -89 30 -39
74 -92 99 -118 l45 -48 22 20 c14 13 36 21 58 21 30 0 40 -6 57 -33 25 -40 67
-183 76 -260 6 -47 15 -67 44 -101 20 -24 41 -51 47 -62 8 -13 21 -17 50 -16
128 7 128 7 204 -30 41 -20 97 -39 124 -43 35 -5 57 -15 75 -34 14 -15 33 -30
42 -33 26 -10 65 -86 94 -183 63 -214 81 -298 95 -445 15 -162 17 -167 65
-213 40 -38 47 -53 79 -163 48 -161 53 -204 31 -241 -17 -29 -17 -31 9 -75 18
-32 26 -59 26 -93 0 -44 4 -52 44 -89 29 -26 52 -61 66 -96 12 -30 34 -75 50
-100 22 -36 29 -62 34 -125 4 -44 12 -123 18 -176 14 -118 0 -239 -37 -314
-13 -28 -31 -70 -39 -94 -9 -23 -25 -55 -36 -71 -11 -15 -20 -31 -20 -34 0 -4
-10 -20 -22 -37 -19 -25 -27 -29 -51 -23 -24 5 -35 0 -69 -32 -52 -51 -78
-103 -78 -157 0 -28 -9 -61 -25 -91 -26 -50 -25 -66 3 -66 23 0 78 -28 123
-63 40 -30 73 -34 124 -13 33 14 34 14 32 -12 -2 -24 2 -27 33 -30 46 -4 87
-20 94 -38 3 -8 12 -14 20 -14 9 0 20 -9 26 -20 15 -28 44 -25 80 10 17 16 36
30 44 30 7 0 22 19 34 43 21 42 98 107 127 107 8 0 19 -9 25 -20 6 -11 19 -20
30 -20 11 0 35 -8 55 -17 34 -16 36 -16 66 6 25 19 38 22 77 16 27 -3 60 -2
76 5 37 14 64 4 72 -25 5 -21 9 -23 32 -14 39 15 132 0 167 -26 28 -21 51 -28
135 -42 19 -3 51 -18 71 -34 34 -27 42 -29 110 -26 67 3 74 5 77 24 2 12 -1
31 -7 41 -8 15 -6 24 13 41 12 11 27 21 33 21 7 0 15 9 18 20 3 11 10 20 15
20 7 0 10 11 26 102 8 50 36 71 122 92 82 21 131 17 194 -15 36 -19 41 -19 57
-5 22 20 45 20 60 2 10 -12 8 -17 -8 -26 -15 -7 -21 -21 -21 -43 0 -21 -7 -36
-20 -45 -38 -23 -14 -91 47 -130 45 -30 60 -28 74 13 15 40 46 48 51 13 2 -13
15 -29 30 -36 16 -7 32 -21 38 -31 5 -10 21 -22 35 -25 18 -5 25 -13 25 -30 0
-13 7 -29 15 -36 8 -7 15 -17 15 -22 0 -10 58 -88 75 -101 6 -4 21 -10 35 -13
57 -12 88 -34 111 -75 21 -38 32 -46 88 -64 l64 -22 -29 -27 c-16 -15 -46 -34
-66 -42 -20 -9 -39 -22 -42 -30 -8 -20 52 -46 76 -33 39 21 54 11 83 -56 16
-38 25 -76 23 -90 -5 -22 -2 -25 27 -25 18 0 73 13 123 30 50 16 97 30 103 30
6 0 40 -14 74 -30 59 -28 65 -34 83 -83 17 -45 23 -52 50 -55 18 -2 50 7 81
23 49 26 51 26 85 10 19 -9 40 -23 47 -31 15 -19 79 -18 107 2 21 15 25 14 69
-15 57 -38 97 -40 118 -7 9 13 42 40 74 60 57 35 63 36 152 36 51 0 107 -5
126 -12 30 -11 35 -10 60 14 40 38 106 58 196 58 43 0 87 5 98 10 25 14 52 66
45 88 -5 14 2 17 39 17 40 0 46 -3 54 -26 8 -24 15 -28 68 -32 32 -3 69 -7 83
-9 21 -2 26 2 28 25 2 15 9 27 15 27 15 0 52 -24 87 -56 14 -12 49 -32 79 -44
61 -24 98 -18 132 22 18 21 20 22 29 5 13 -21 43 -22 60 -2 10 12 15 12 37 -2
24 -16 26 -16 39 2 8 10 14 31 14 47 0 26 3 28 39 28 25 0 41 -5 45 -15 3 -9
19 -15 41 -15 24 0 35 -4 35 -15 0 -15 31 -21 44 -8 4 5 33 13 64 18 48 9 66
8 109 -7 29 -10 68 -18 87 -18 30 0 33 3 29 21 -3 11 -18 25 -32 31 -107 44
-124 61 -114 121 6 37 6 37 24 18 10 -10 32 -22 48 -26 16 -3 35 -12 41 -19 6
-8 28 -14 48 -14 21 0 42 -2 48 -3 25 -4 45 3 51 19 9 27 65 82 83 82 9 0 41
15 71 33 30 17 66 38 81 44 15 7 40 31 55 54 45 66 104 129 123 129 26 0 107
68 114 96 5 19 13 24 36 24 16 0 32 5 35 10 10 16 33 11 54 -12 33 -34 104
-78 129 -78 13 0 33 11 46 25 30 33 46 32 81 -5 16 -17 47 -35 70 -41 70 -17
85 -27 85 -54 0 -36 51 -66 92 -54 24 7 42 3 81 -15 40 -20 54 -22 74 -13 17
7 27 7 34 0 8 -8 5 -13 -9 -17 -24 -8 -72 -68 -72 -91 0 -9 17 -41 38 -70 47
-69 166 -143 245 -154 58 -8 94 -25 150 -70 38 -29 41 -30 146 -29 60 0 118
-3 129 -6 24 -8 62 9 62 27 0 7 5 18 12 25 9 9 17 5 34 -13 17 -18 34 -25 61
-25 20 0 61 -5 90 -12 43 -10 55 -18 64 -41 12 -28 75 -87 93 -87 6 0 20 -11
31 -23 11 -13 33 -31 49 -39 26 -14 34 -14 76 0 28 9 61 12 81 8 30 -5 39 -14
62 -61 39 -80 59 -76 124 24 55 85 71 92 109 50 38 -42 81 -10 90 67 3 27 10
68 16 91 7 27 7 47 0 59 -11 19 6 56 40 84 9 8 21 33 26 55 5 26 15 43 29 50
37 16 36 44 -3 60 -33 14 -49 45 -46 89 0 10 -7 20 -18 23 -11 3 -24 20 -30
39 -7 19 -15 34 -20 34 -5 0 -17 13 -26 29 -10 17 -23 27 -31 24 -7 -3 -13 0
-13 6 0 6 -7 8 -15 5 -8 -4 -60 13 -114 36 -73 30 -108 52 -134 81 -20 21 -44
39 -55 39 -11 0 -22 8 -24 18 -3 11 -26 26 -54 36 -65 25 -74 33 -74 67 0 16
-13 50 -30 76 -34 53 -36 65 -15 83 21 18 19 67 -6 101 -23 32 -53 38 -63 12
-6 -14 -10 -11 -26 15 -11 18 -24 32 -29 32 -23 0 -41 -14 -41 -31 0 -26 -12
-24 -44 6 -22 20 -26 31 -21 53 3 16 -1 44 -10 65 -21 51 -29 146 -16 180 10
25 15 28 39 22 21 -4 33 -1 47 15 11 12 31 20 49 20 25 0 43 12 91 62 33 35
77 76 98 91 43 32 69 85 61 125 -4 19 0 33 10 41 24 20 20 35 -22 73 -48 43
-132 60 -162 33 -23 -21 -57 -6 -66 30 -3 14 -19 36 -34 48 -20 18 -27 30 -23
48 4 20 -1 28 -22 37 -36 17 -50 15 -96 -10 -40 -23 -40 -23 -55 -3 -14 19
-15 19 -60 -4 -52 -28 -64 -21 -64 37 0 42 -23 51 -59 24 l-28 -21 -19 25
c-10 13 -33 27 -51 30 -26 5 -36 1 -57 -21 -28 -30 -46 -26 -46 10 0 14 -8 29
-19 35 -16 8 -19 17 -14 44 7 41 -20 69 -80 84 -44 11 -127 9 -147 -3 -6 -4
-20 2 -31 14 -11 12 -26 21 -34 21 -10 0 -15 10 -15 30 0 20 -7 33 -22 41 -13
7 -38 25 -56 40 -18 16 -37 29 -43 29 -6 0 -35 12 -65 27 l-55 27 7 40 c3 23
18 60 33 83 21 34 31 42 53 41 14 -1 33 4 41 11 10 8 28 10 50 6 31 -6 38 -3
52 19 13 19 15 36 10 63 -20 113 -18 151 13 226 27 63 30 80 25 134 -3 35 -11
64 -18 67 -7 2 -31 -5 -54 -17 -46 -23 -73 -17 -79 19 -6 32 -19 38 -52 24
-23 -10 -34 -10 -43 -1 -6 6 -24 11 -39 11 -20 0 -28 5 -28 18 0 9 -9 28 -19
41 -16 20 -29 25 -72 26 -30 1 -67 -4 -83 -12 -21 -11 -35 -12 -55 -5 -14 6
-47 13 -73 17 -43 5 -51 3 -93 -29 -26 -20 -50 -36 -55 -36 -8 0 -22 37 -34
92 -4 17 -14 28 -28 30 -15 2 -24 14 -32 43 -10 33 -16 41 -39 43 -18 2 -27 9
-27 22 0 10 -33 55 -74 99 -41 45 -77 90 -81 100 -8 26 -27 32 -65 21 -18 -5
-41 -5 -54 0 -18 7 -32 3 -59 -16 l-36 -24 -62 61 c-69 68 -91 79 -158 79 -74
0 -111 -42 -111 -127 0 -48 -3 -55 -25 -63 -13 -5 -27 -20 -29 -32 -3 -13 -8
-36 -11 -53 -3 -16 -6 -38 -6 -47 -1 -47 -74 38 -85 98 -3 21 -11 44 -16 50
-4 6 -7 25 -6 41 3 25 -6 37 -52 77 -50 43 -58 47 -90 40 -19 -4 -62 -7 -95
-8 -50 -1 -64 2 -86 21 -24 22 -27 23 -55 8 -16 -8 -36 -15 -44 -15 -8 0 -21
-13 -28 -29 -11 -26 -11 -33 4 -56 9 -14 15 -27 13 -29 -4 -4 -121 19 -146 28
-9 4 -21 -1 -27 -10 -11 -15 -15 -15 -50 0 -56 23 -113 21 -121 -4 -3 -11 -10
-20 -14 -20 -5 0 -29 -16 -54 -35 -34 -26 -49 -47 -62 -85 -17 -50 -21 -53
-80 -62 -12 -2 -21 -12 -23 -26 -3 -23 -6 -23 -62 -17 -43 5 -65 3 -88 -9 -17
-9 -39 -16 -49 -16 -10 0 -35 -5 -56 -11 -29 -8 -42 -18 -52 -42 -7 -18 -23
-41 -35 -52 -17 -16 -24 -17 -38 -7 -9 7 -48 28 -86 47 -38 19 -74 40 -82 46
-7 6 -23 9 -36 8 -13 -2 -33 1 -46 5 -16 5 -29 3 -42 -9 -23 -21 -40 -12 -40
20 0 17 -9 29 -31 41 -30 15 -31 16 -11 30 11 8 27 11 35 8 11 -4 17 4 22 28
4 18 12 38 17 45 30 38 46 86 41 126 -3 23 -10 50 -15 59 -13 26 -87 73 -145
92 -38 13 -56 25 -66 44 -10 22 -19 27 -49 27 -20 0 -42 6 -49 13 -7 6 -21 12
-31 12 -12 0 -18 8 -18 23 0 14 -18 40 -45 67 -42 41 -50 45 -95 45 -35 0 -57
7 -81 24 -40 30 -189 52 -220 33 -28 -18 -36 -15 -48 18 -9 26 -15 30 -48 30
-21 0 -56 9 -78 20 -22 11 -53 20 -70 20 -38 0 -50 9 -58 42 -5 17 -17 30 -38
37 -18 6 -47 27 -66 46 -19 19 -40 35 -48 35 -19 0 -95 51 -95 65 0 6 -8 27
-19 47 l-18 37 23 22 c13 12 24 27 24 33 0 20 -109 76 -172 90 -19 4 -28 13
-28 25 0 29 -27 51 -62 51 -22 0 -31 6 -35 20 -7 26 -46 36 -91 22 -32 -10
-38 -9 -54 8 -22 24 -81 26 -118 5 -14 -8 -42 -14 -63 -15 l-38 0 7 -46 c4
-26 3 -45 -2 -43 -5 2 -38 19 -74 37 -36 18 -83 35 -105 39 -22 3 -51 16 -65
29 -14 12 -50 31 -80 41 -53 17 -55 19 -57 56 -2 52 -19 70 -57 62 -17 -3 -50
-9 -74 -12 -33 -4 -46 -11 -59 -34 -10 -17 -26 -29 -38 -29 -11 -1 -31 -7 -45
-15 -37 -21 -64 -18 -88 10 -25 28 -45 31 -83 12 -24 -13 -96 -26 -166 -31
-18 -1 -42 -11 -55 -22 -39 -36 -56 -36 -80 -4 -23 32 -55 38 -104 20 -21 -8
-31 -7 -44 5 -9 8 -28 15 -43 15 -19 0 -31 8 -42 30 -27 51 -77 37 -94 -27 -6
-23 -14 -29 -51 -35 -37 -6 -47 -4 -62 12 -10 11 -27 20 -37 20 -9 0 -28 11
-41 25 -28 30 -35 31 -67 5 -23 -18 -27 -18 -54 -5 -37 20 -66 19 -78 -2 -9
-17 -11 -16 -33 5 -14 12 -30 22 -38 22 -8 0 -34 17 -59 38 -25 22 -59 46 -76
55 -16 8 -41 27 -54 41 -14 14 -35 26 -48 26 -48 0 -63 17 -63 69 0 62 -20 82
-78 77 -31 -2 -47 -11 -67 -35 -32 -38 -39 -38 -77 -6 -16 14 -39 25 -49 25
-11 0 -39 11 -62 24 -23 13 -79 36 -124 52 l-82 28 -24 -22 c-40 -38 -90 -28
-112 24 -13 32 -80 84 -109 84 -7 0 -19 -7 -26 -15 -19 -23 -49 -18 -62 10 -6
14 -22 32 -35 40 -14 10 -23 25 -23 41 0 19 -8 28 -35 40 -19 8 -47 13 -63 12
-30 -2 -92 28 -155 73 -22 16 -53 29 -69 29 -21 0 -39 10 -61 35 -17 19 -39
35 -49 35 -29 0 -79 -28 -120 -67 l-36 -35 -52 12 c-28 7 -57 18 -64 26 -8 7
-37 22 -66 33 -40 15 -58 18 -73 10 -10 -6 -36 -8 -56 -5 -20 3 -55 8 -78 12
-23 3 -47 12 -54 20 -6 8 -21 14 -32 14 -11 0 -30 11 -43 25 -26 28 -43 30
-94 10z m84 -40 c9 -14 26 -25 37 -25 12 0 33 -6 47 -14 45 -24 171 -42 193
-28 14 9 25 9 39 2 10 -5 28 -10 40 -10 11 0 23 -7 26 -15 5 -12 117 -55 145
-55 4 0 31 20 59 45 67 59 97 67 125 31 14 -17 38 -31 66 -37 24 -6 57 -20 74
-33 52 -40 133 -76 170 -76 49 0 74 -15 68 -39 -3 -13 3 -25 22 -37 14 -9 33
-30 41 -45 12 -24 21 -29 52 -29 21 0 43 5 50 12 16 16 92 -35 92 -62 0 -25
39 -50 89 -57 33 -5 42 -2 53 16 7 11 19 21 27 21 21 0 152 -49 186 -70 16
-10 44 -21 61 -24 17 -4 41 -17 53 -30 28 -30 75 -24 102 14 29 38 86 40 99 4
6 -14 10 -40 10 -58 0 -39 12 -51 60 -61 19 -4 49 -20 66 -34 16 -15 44 -33
62 -40 17 -7 34 -22 37 -32 4 -10 12 -19 19 -19 8 0 19 -7 26 -15 7 -8 19 -15
27 -15 8 0 28 -11 45 -25 36 -30 43 -31 65 -6 15 19 18 19 47 3 36 -18 64 -17
88 5 16 15 20 14 42 -10 14 -15 33 -27 43 -27 10 0 26 -9 35 -19 13 -15 25
-18 64 -14 51 5 84 30 84 63 0 10 6 23 14 29 12 10 17 7 28 -16 9 -19 24 -29
48 -34 18 -4 40 -15 47 -25 13 -17 15 -17 64 0 l51 19 25 -32 c30 -38 64 -40
107 -8 29 22 84 35 173 41 18 1 38 7 45 14 20 20 47 14 72 -15 23 -27 25 -27
67 -15 24 7 60 17 79 22 19 5 36 13 38 18 9 27 33 46 63 48 102 10 94 12 94
-26 1 -48 8 -56 68 -76 28 -9 68 -30 87 -46 22 -17 46 -28 66 -28 28 0 105
-33 161 -70 20 -13 24 -12 43 5 15 14 20 28 18 47 -4 21 0 28 13 28 9 0 36 9
60 20 56 25 61 25 93 -5 22 -20 31 -23 52 -15 14 6 38 10 54 10 22 0 29 -5 32
-22 2 -19 10 -24 45 -26 38 -3 44 -6 51 -34 7 -28 14 -33 58 -43 27 -6 65 -22
84 -36 19 -13 37 -25 39 -26 2 -2 -3 -11 -12 -21 -19 -21 -22 -53 -6 -69 6 -6
14 -26 18 -44 4 -20 16 -38 29 -45 12 -6 30 -18 39 -27 10 -8 31 -19 46 -22
16 -4 38 -20 50 -36 11 -16 36 -34 54 -41 23 -8 34 -20 38 -39 7 -29 14 -33
80 -45 22 -4 57 -16 78 -27 23 -12 46 -17 62 -13 21 5 27 1 39 -29 16 -38 38
-44 72 -21 18 13 33 13 102 2 45 -7 87 -20 96 -29 9 -9 25 -19 36 -22 20 -6
20 -16 20 -536 l0 -529 -1724 0 c-1634 0 -1725 1 -1730 18 -2 9 -7 55 -11 102
-4 47 -13 112 -21 145 -8 33 -18 80 -23 105 -20 101 -74 268 -103 318 -17 29
-41 57 -53 62 -13 5 -27 15 -32 23 -14 24 -56 44 -103 51 -25 4 -72 20 -105
36 -33 16 -81 35 -108 42 -40 10 -51 10 -75 -4 -28 -16 -72 -9 -72 12 0 5 -16
28 -36 49 -29 33 -37 51 -44 104 -12 79 -54 215 -82 262 -11 20 -30 37 -42 40
-29 7 -83 0 -99 -13 -16 -14 -69 38 -144 138 -36 49 -56 66 -83 73 -51 14
-124 20 -214 19 -51 -1 -88 4 -107 13 -21 11 -46 14 -97 9 l-69 -7 -32 47
c-40 58 -71 78 -113 75 -35 -3 -97 21 -137 52 -37 29 -85 25 -113 -10 l-23
-30 -48 36 c-26 19 -49 45 -51 57 -2 11 -11 74 -19 138 -9 67 -23 127 -32 142
-19 28 -82 62 -137 71 -20 4 -44 16 -54 26 -9 10 -21 19 -25 19 -5 0 -30 14
-56 30 -26 17 -58 30 -72 30 -15 0 -43 5 -65 11 -36 10 -38 12 -32 42 4 17 17
47 31 67 13 19 27 49 31 65 11 46 52 123 74 138 12 9 20 28 22 57 3 44 4 45
43 51 22 3 51 11 66 17 14 5 36 8 50 5 14 -2 41 2 60 10 50 22 75 20 93 -8z
m7589 -1973 c12 -14 30 -17 91 -15 41 1 83 6 93 11 28 15 123 -64 116 -96 -3
-12 0 -28 6 -35 6 -7 15 -36 21 -63 15 -68 68 -126 111 -122 32 3 32 3 34 68
2 40 7 66 15 68 33 11 50 43 50 92 0 30 7 61 16 75 14 22 24 25 76 25 55 0 61
-2 94 -37 34 -36 35 -40 29 -92 -4 -30 -9 -59 -11 -65 -3 -8 52 -11 183 -11
l188 1 32 -36 c18 -19 33 -44 33 -56 0 -26 19 -44 47 -44 17 0 23 -6 23 -23 0
-29 27 -68 43 -61 9 3 18 -15 27 -53 14 -52 18 -58 44 -61 19 -3 42 6 70 26
l42 30 82 -10 c44 -6 89 -7 99 -3 28 13 112 13 122 1 5 -6 11 -22 13 -36 2
-19 10 -26 32 -28 16 -2 39 -10 51 -18 17 -11 29 -12 49 -4 22 8 28 7 33 -8
19 -53 57 -65 109 -33 l31 19 7 -51 c3 -31 1 -65 -6 -84 l-12 -33 -1453 0
-1453 0 0 205 c0 198 1 205 21 216 16 8 28 8 46 0 52 -24 103 -8 103 31 0 14
8 18 36 18 33 0 37 3 55 48 31 73 32 75 82 107 25 17 49 38 52 47 7 20 48 16
99 -8 37 -18 52 -18 59 0 5 12 13 13 39 5 18 -5 45 -9 59 -9 14 0 47 -11 74
-25 41 -22 46 -23 40 -8 -4 10 -12 32 -17 48 -6 17 -15 35 -20 42 -13 17 7 51
34 56 41 8 45 7 61 -11z m-1873 -2848 c0 -969 -1 -1025 -17 -1022 -10 2 -19
12 -21 23 -11 58 -34 84 -108 121 l-74 37 -99 -32 c-108 -34 -131 -37 -131
-18 0 6 -14 45 -32 85 -35 79 -57 95 -104 73 -30 -13 -34 -14 -34 -2 0 5 12
14 28 20 34 14 92 68 92 85 0 20 -22 36 -51 36 -15 0 -31 5 -34 10 -3 6 -15
10 -26 10 -12 0 -30 17 -49 48 -29 48 -66 72 -131 86 -24 5 -41 25 -85 99 -7
10 -17 24 -23 30 -6 6 -11 21 -11 33 0 14 -10 26 -29 34 -16 6 -32 18 -35 26
-3 8 -17 18 -30 24 -14 5 -26 19 -28 31 -7 51 -78 51 -96 -1 -11 -30 -11 -30
-40 -13 -16 9 -35 30 -42 47 -12 27 -11 31 8 44 15 10 22 25 22 47 0 21 6 35
16 39 10 4 14 16 12 38 -3 29 -7 33 -35 36 -29 3 -33 7 -33 33 0 24 -4 29 -17
25 -32 -9 -166 -26 -265 -34 l-98 -8 0 36 c0 36 24 243 35 302 l6 33 -175 0
c-97 0 -176 -1 -176 -3 0 -1 7 -46 14 -100 8 -53 18 -135 22 -183 l6 -85 -68
4 c-38 2 -122 12 -188 21 l-119 17 7 -98 c7 -112 0 -178 -20 -178 -7 0 -25 12
-41 26 -21 19 -33 23 -53 18 -14 -4 -57 -8 -96 -8 -55 -1 -77 -5 -92 -20 -20
-18 -22 -18 -69 0 -26 10 -54 26 -61 36 -17 24 -64 23 -86 -1 -10 -11 -31 -25
-47 -31 -16 -7 -29 -19 -29 -26 0 -8 -4 -14 -8 -14 -4 0 -13 -14 -19 -31 -8
-19 -23 -34 -42 -42 -17 -6 -31 -17 -31 -25 0 -25 -28 -23 -56 3 -36 33 -96
65 -124 65 -13 0 -20 7 -20 20 0 33 -28 39 -81 17 l-48 -20 -33 24 c-48 36
-107 69 -124 69 -17 0 -18 -5 6 58 11 29 20 68 20 88 0 44 12 68 58 116 29 30
40 36 63 31 23 -4 34 1 59 28 16 19 33 43 36 54 4 11 12 27 19 35 13 15 64
130 91 204 29 77 35 182 19 316 -8 69 -17 137 -18 153 l-4 27 1534 0 1533 0 0
-1026z m4892 987 c20 -50 65 -69 101 -41 16 12 28 16 38 9 8 -5 26 -9 40 -9
33 0 90 -56 67 -65 -12 -5 -15 -20 -14 -61 1 -53 0 -57 -42 -92 -24 -20 -71
-65 -105 -100 -51 -51 -68 -62 -95 -62 -20 0 -35 -6 -38 -15 -5 -11 -16 -13
-44 -9 l-39 6 -15 -50 c-15 -54 -10 -136 13 -196 7 -16 9 -42 6 -57 -5 -22 1
-35 31 -68 42 -47 70 -52 84 -16 12 31 18 31 30 0 13 -33 36 -41 59 -21 18 16
20 16 35 -6 21 -30 20 -45 -4 -58 -30 -16 -25 -55 15 -115 22 -32 33 -59 29
-69 -10 -27 20 -60 73 -79 33 -12 54 -26 61 -43 8 -15 20 -24 35 -24 14 0 32
-12 46 -31 14 -19 49 -43 90 -61 119 -53 149 -69 161 -84 7 -7 19 -14 26 -14
10 0 13 -7 8 -25 -4 -18 -2 -25 8 -25 8 0 28 -12 44 -27 16 -15 33 -28 39 -28
5 0 14 -20 20 -45 7 -29 17 -46 28 -48 22 -4 21 -16 0 -49 -10 -15 -16 -37
-15 -51 3 -16 -2 -25 -15 -28 -29 -8 -57 -76 -49 -119 4 -20 3 -42 -2 -48 -5
-7 -12 -38 -14 -70 -6 -74 -18 -86 -54 -58 -15 11 -40 21 -56 21 -25 0 -35
-10 -79 -77 -28 -43 -52 -79 -54 -82 -2 -2 -17 22 -32 53 -32 67 -44 71 -149
62 -63 -5 -77 -3 -92 12 -57 54 -93 82 -104 80 -6 -2 -22 17 -35 42 -16 33
-29 45 -45 46 -13 1 -40 6 -60 13 -20 7 -52 9 -71 6 -30 -6 -37 -3 -59 25 -21
27 -27 30 -50 21 -16 -6 -28 -19 -30 -32 -3 -22 -6 -22 -135 -22 -128 0 -133
1 -164 27 -49 41 -124 76 -165 76 -59 0 -184 79 -227 144 l-35 52 27 32 c15
19 35 32 49 32 35 0 39 28 8 58 -24 24 -29 25 -58 14 -27 -10 -36 -9 -65 9
-26 16 -45 20 -78 17 -53 -6 -66 1 -80 44 -10 29 -19 36 -72 53 -33 11 -77 35
-97 53 -46 40 -70 40 -106 1 -28 -29 -30 -29 -57 -15 -43 22 -100 75 -83 76
13 0 15 26 15 175 0 96 -2 175 -5 175 -3 0 -44 -7 -91 -14 -47 -8 -129 -18
-182 -22 l-95 -7 5 69 c3 38 13 121 22 185 l16 115 -172 0 c-95 0 -173 -2
-173 -6 0 -3 6 -55 14 -115 8 -61 17 -140 21 -177 l6 -68 -48 0 c-45 0 -221
21 -295 35 l-33 6 0 -175 c0 -97 1 -176 3 -176 1 0 46 7 100 14 53 8 136 18
183 22 l87 7 -5 -69 c-3 -38 -13 -122 -22 -188 l-17 -119 90 7 91 6 -25 -20
c-14 -11 -46 -27 -72 -35 -45 -15 -118 -81 -118 -106 0 -13 -87 -1 -115 16
-11 7 -31 15 -45 19 -14 3 -33 19 -42 36 -9 16 -21 30 -26 30 -12 0 -29 -43
-38 -92 -7 -43 22 -93 64 -109 13 -5 22 -12 19 -15 -3 -3 -15 0 -28 6 -25 14
-127 7 -160 -11 -17 -8 -23 -7 -33 7 -9 11 -21 15 -40 12 -19 -4 -29 0 -37 13
-8 15 -21 19 -63 19 l-54 0 -10 -47 c-5 -27 -10 -38 -11 -25 -1 27 -20 28 -54
2 -27 -22 -42 -26 -32 -10 4 6 3 24 0 41 -7 29 -8 30 -26 13 -11 -10 -29 -33
-40 -51 -11 -18 -32 -36 -45 -39 -29 -7 -97 19 -134 52 -37 32 -92 64 -113 64
-11 0 -22 -12 -28 -29 -9 -27 -13 -29 -35 -20 -14 5 -43 9 -65 9 -32 0 -39 3
-39 19 0 11 -10 27 -22 35 -19 14 -24 14 -38 1 -14 -13 -19 -13 -39 1 -35 25
-55 11 -47 -34 9 -61 -12 -82 -85 -82 l-59 0 0 950 0 950 1908 0 1909 0 15
-39z m-6762 -1206 c0 -39 -13 -45 -32 -15 -9 14 -24 20 -50 20 -20 0 -44 3
-53 6 -30 12 6 24 73 24 l62 0 0 -35z m4980 21 c64 -9 89 -15 75 -20 -58 -22
-67 -28 -72 -45 -6 -23 -69 -75 -103 -86 -14 -4 -34 -16 -46 -27 l-21 -19 -7
62 c-3 34 -6 82 -6 105 l0 44 43 -1 c23 0 85 -6 137 -13z"/>
<path d="M4325 4855 c11 -64 34 -268 35 -297 0 -27 -2 -28 -53 -28 -52 0 -253
24 -299 35 l-23 6 0 -180 c0 -175 1 -180 20 -176 52 12 147 25 215 30 41 3 90
8 109 11 l33 5 -7 -83 c-3 -46 -13 -128 -21 -182 -8 -55 -14 -102 -14 -105 0
-3 79 -6 176 -6 l176 0 -7 30 c-9 46 -35 276 -35 312 l0 32 58 -5 c76 -7 283
-34 302 -39 13 -4 15 20 15 176 0 175 -1 180 -20 175 -42 -11 -258 -36 -306
-36 -47 0 -49 1 -49 28 0 32 27 264 36 307 l6 31 -177 0 -177 -1 7 -40z"/>
</g>
</svg>
